<svg xmlns="http://www.w3.org/2000/svg" width="32" height="32" fill="none"><path fill="url(#i951ff9-paint0_radial_42584_82292)" d="M22.926 4.972A2.92 2.92 0 0 0 20.166 3h-1.392a2.92 2.92 0 0 0-2.87 2.4l-1.453 8.078.566-1.895A2.92 2.92 0 0 1 17.81 9.5h5.249l2.246 1.309L27.47 9.5h-.911a2.92 2.92 0 0 1-2.76-1.972z"/><path fill="url(#i951ff9-paint1_radial_42584_82292)" d="M9.396 27.015A2.92 2.92 0 0 0 12.16 29h2.412a2.917 2.917 0 0 0 2.917-2.9l.042-7.614-.561 1.917a2.92 2.92 0 0 1-2.8 2.097H8.89l-1.926-1.479L4.88 22.5h.9c1.252 0 2.364.799 2.764 1.985z"/><path fill="url(#i951ff9-paint2_linear_42584_82292)" d="M19.75 3H8.813c-3.125 0-5 4.09-6.25 8.178C1.082 16.023-.856 22.502 4.75 22.502h4.91a2.92 2.92 0 0 0 2.806-2.11c.813-2.816 2.284-7.893 3.436-11.74.574-1.92 1.052-3.568 1.787-4.595A2.47 2.47 0 0 1 19.75 3"/><path fill="url(#i951ff9-paint3_linear_42584_82292)" d="M19.75 3H8.813c-3.125 0-5 4.09-6.25 8.178C1.082 16.023-.856 22.502 4.75 22.502h4.91a2.92 2.92 0 0 0 2.806-2.11c.813-2.816 2.284-7.893 3.436-11.74.574-1.92 1.052-3.568 1.787-4.595A2.47 2.47 0 0 1 19.75 3"/><path fill="url(#i951ff9-paint4_radial_42584_82292)" d="M12.248 29h10.938c3.125 0 5-4.09 6.25-8.18 1.48-4.844 3.418-11.325-2.188-11.325h-4.91a2.92 2.92 0 0 0-2.806 2.111c-.812 2.816-2.284 7.893-3.435 11.741-.575 1.92-1.053 3.569-1.787 4.595A2.47 2.47 0 0 1 12.248 29"/><path fill="url(#i951ff9-paint5_linear_42584_82292)" d="M12.248 29h10.938c3.125 0 5-4.09 6.25-8.18 1.48-4.844 3.418-11.325-2.188-11.325h-4.91a2.92 2.92 0 0 0-2.806 2.111c-.812 2.816-2.284 7.893-3.435 11.741-.575 1.92-1.053 3.569-1.787 4.595A2.47 2.47 0 0 1 12.248 29"/><defs><radialGradient id="i951ff9-paint0_radial_42584_82292" cx="0" cy="0" r="1" gradientTransform="rotate(-130.79 15.89 .917)scale(11.294 10.7167)" gradientUnits="userSpaceOnUse"><stop offset=".096" stop-color="#00AEFF"/><stop offset=".773" stop-color="#2253CE"/><stop offset="1" stop-color="#0736C4"/></radialGradient><radialGradient id="i951ff9-paint1_radial_42584_82292" cx="0" cy="0" r="1" gradientTransform="rotate(50.161 -19.86 18.64)scale(10.3261 10.1421)" gradientUnits="userSpaceOnUse"><stop stop-color="#FFB657"/><stop offset=".634" stop-color="#FF5F3D"/><stop offset=".923" stop-color="#C02B3C"/></radialGradient><linearGradient id="i951ff9-paint2_linear_42584_82292" x1="8.158" x2="9.688" y1="5.363" y2="23.241" gradientUnits="userSpaceOnUse"><stop offset=".156" stop-color="#0D91E1"/><stop offset=".487" stop-color="#52B471"/><stop offset=".652" stop-color="#98BD42"/><stop offset=".937" stop-color="#FFC800"/></linearGradient><linearGradient id="i951ff9-paint3_linear_42584_82292" x1="9.522" x2="10.357" y1="3" y2="22.503" gradientUnits="userSpaceOnUse"><stop stop-color="#3DCBFF"/><stop offset=".247" stop-color="#0588F7" stop-opacity="0"/></linearGradient><radialGradient id="i951ff9-paint4_radial_42584_82292" cx="0" cy="0" r="1" gradientTransform="rotate(109.453 11.222 13.628)scale(25.9448 31.3245)" gradientUnits="userSpaceOnUse"><stop offset=".066" stop-color="#8C48FF"/><stop offset=".5" stop-color="#F2598A"/><stop offset=".896" stop-color="#FFB152"/></radialGradient><linearGradient id="i951ff9-paint5_linear_42584_82292" x1="28.674" x2="28.663" y1="8.305" y2="13.617" gradientUnits="userSpaceOnUse"><stop offset=".058" stop-color="#F8ADFA"/><stop offset=".708" stop-color="#A86EDD" stop-opacity="0"/></linearGradient></defs></svg>